<?xml version="1.0" encoding="utf-8"?>
<!-- Generator: Adobe Illustrator 23.1.1, SVG Export Plug-In . SVG Version: 6.00 Build 0)  -->
<svg version="1.1" id="Layer_1" xmlns="http://www.w3.org/2000/svg" xmlns:xlink="http://www.w3.org/1999/xlink" x="0px" y="0px"
	 viewBox="0 0 576 576" style="enable-background:new 0 0 576 576;" xml:space="preserve">
<style type="text/css">
	.st0{fill:#fff;}
</style>
<g>
	<path class="st0" d="M11.5,270v-10.5c11.5-1,14.4-2.7,14.4-12.5v-97.7c0-9.9-2.9-11.5-14.4-12.5v-10.5h66.5
		c47,0,72.2,6.6,72.2,37.6c0,17-10.1,26.5-27.9,31.2c20.5,5.1,32,15.6,32,34.3c0,31-25.2,40.6-72.2,40.6H11.5z M76.3,142.8
		c-3.7,0-6.2,2.5-6.2,6.2v38h7c15.2,0,25.9-3.9,25.9-23s-10.7-21.1-22.4-21.1H76.3z M70.2,203.3v44.1c0,3.7,2.5,6.2,6.2,6.2h5.7
		c15.2,0,25-5.1,25-24.2c0-19.1-9.9-26.1-25.9-26.1H70.2z"/>
	<path class="st0" d="M218.7,197.4c-2.9,0-5.5,1-7.8,3.5v50.7c0,5.3,1.8,7,10.3,8V270h-58.7v-10.5c8.4-1,10.3-2.7,10.3-8V205
		c0-4.1-1.2-5.7-4.5-5.7h-5.7v-10.1l34.3-17.9h14.2v11.5c5.5-6.2,14.6-11.5,24.2-11.5c11.1,0,19.3,6.4,19.3,18.5
		c0,11.9-8,19.1-16.4,19.1C223.7,208.8,225.7,197.4,218.7,197.4z"/>
	<path class="st0" d="M298.4,222.2c0,24.4,6.8,34.5,22.2,34.5c11.1,0,22.2-7.6,29.8-22.2l13.1,7.8c-9.6,18.5-22.6,30.8-48,30.8
		c-34.5,0-55.8-20.9-55.8-50.9c0-30,22.2-50.9,52.7-50.9c32.4,0,48.6,18.9,48.6,47.8h-62.6V222.2z M325.2,203.5
		c0-10.9-4.5-17.6-12.1-17.6c-8.8,0-12.7,5.1-14.2,17.6H325.2z"/>
	<path class="st0" d="M428.7,270h-27.5l-26.7-72.7c-2.3-7-4.1-11.5-11.1-12.5v-10.5h58.7v10.5c-7.6,1-10.3,2.7-7,12.5l11.3,31.4
		l10.3-30.4c-2.7-7.6-4.5-12.5-8.8-13.5v-10.5h56.6v10.5c-7.6,1-11.3,2.7-8,12.5l11.1,30.6l11.1-30.6c3.5-9.6-1-11.5-8.4-12.5v-10.5
		h38v10.5c-7,1-9.2,4.5-11.9,12.5L490,270h-27.3l-17.6-48.2L428.7,270z"/>
	<path class="st0" d="M11.5,436.1c11.5-1,14.4-2.7,14.4-12.5v-97.7c0-9.9-2.9-11.5-14.4-12.5v-10.5h70.6c47,0,72.2,7.6,72.2,38.6
		c0,33-25.2,40.4-73.1,40.4H70.2v41.7c0,9.9,2.9,11.5,14.4,12.5v10.5H11.5V436.1z M76.3,319.3c-3.7,0-6.2,2.5-6.2,6.2v40h11.1
		c15.8,0,25.9-4.9,25.9-24s-10.1-22.2-25-22.2H76.3z"/>
	<path class="st0" d="M159.4,436.1c8.4-1,10.3-2.7,10.3-8v-94.6c0-4.1-1.2-5.7-4.5-5.7h-5.7v-10.1l34.3-17.9h14.2v128.3
		c0,5.3,1.8,7,10.3,8v10.5h-58.7V436.1z"/>
	<path class="st0" d="M253,449.2c-16.8,0-27.7-10.5-27.7-24.2c0-25.4,33-33.9,59.5-39.2v-8.2c0-11.7-1.2-15.4-8.8-15.4
		c-6,0-8.8,3.7-12.3,13.1c-3.3,9.2-10.1,13.5-18.9,13.5c-7.6,0-13.5-4.7-13.5-14.6c0-17,21.1-26.5,49-26.5
		c22.6,0,42.7,8.4,42.7,31.8v47c0,4.5,2.1,6.2,5.1,6.2c1.2,0,3.1-0.2,5.1-1.2v12.1c-6.4,3.7-13.3,5.5-23.8,5.5
		c-11.9,0-21.3-2.7-24-12.7C277.2,442.9,265.7,449.2,253,449.2z M284.8,400c-12.5,3.1-20.7,7.4-20.7,16.4c0,6.8,4.5,9.9,9.6,9.9
		c4.5,0,8.2-1.6,11.1-3.7V400z"/>
	<path class="st0" d="M403.9,436.1c8.4-1,10.3-2.7,10.3-8v-47.2c0-8.8-5.3-12.1-11.9-12.1c-5.5,0-9.9,1.8-14.4,4.9v54.4
		c0,5.3,1.8,7,10.3,8v10.5h-58.7v-10.5c8.4-1,10.3-2.7,10.3-8v-46.6c0-4.1-1.2-5.7-4.5-5.7h-5.7v-10.1l34.3-17.9h14.2v10.1
		c8.2-5.5,20.1-10.1,30.4-10.1c16.6,0,34.1,5.5,34.1,34.1v46.2c0,5.3,1.8,7,10.3,8v10.5h-58.7V436.1z"/>
	<path class="st0" d="M564.5,414.1c0,23-20.3,35.5-45.6,35.5c-12.1,0-25.2-4.5-31.4-8.4l-2.5,5.3h-9l-7.4-35.1l8.2-2.1
		c10.1,16.4,28.1,26.1,40.6,26.1c7.2,0,11.3-3.3,11.3-8.4c0-6-8.4-9.2-18.9-12.9c-16.4-5.7-37.8-13.3-37.8-34.1
		c0-19.5,19.7-32.2,42.5-32.2c14.2,0,21.8,4.5,27.7,8.4l2.7-5.3h8.8l6.4,31.8l-9,2.5c-8.6-15-22.6-24-32.2-24c-5.7,0-9,3.1-9,7.6
		c0,5.7,7.4,9,16.8,12.3C546.1,387.9,564.5,394.9,564.5,414.1z"/>
</g>
</svg>
